<!-- public/google-icon.svg -->
<svg xmlns="http://www.w3.org/2000/svg" width="46" height="46" viewBox="0 0 48 48">
  <path fill="#fbc02d" d="M43.6 20.5H42V20H24v8h11.3C33.6 33.2 29.3 36 24 36c-6.6 0-12-5.4-12-12s5.4-12 12-12c3.1 0 5.9 1.2 8 3.1l5.7-5.7C34.6 6.3 29.6 4 24 4 12.9 4 4 12.9 4 24s8.9 20 20 20c11 0 20-8 20-20 0-1.3-.1-2.5-.4-3.5z"/>
  <path fill="#e53935" d="M6.3 14.7l6.6 4.8C14.3 15.6 18.8 12 24 12c3.1 0 5.9 1.2 8 3.1l5.7-5.7C34.6 6.3 29.6 4 24 4c-7.6 0-14 4.1-17.7 10.2z"/>
  <path fill="#4caf50" d="M24 44c5.3 0 10.1-2 13.7-5.3l-6.3-5.3c-2 1.4-4.5 2.3-7.4 2.3-5.3 0-9.8-3.6-11.3-8.5l-6.6 5.1C9.9 39.6 16.4 44 24 44z"/>
  <path fill="#1565c0" d="M43.6 20.5H42V20H24v8h11.3c-1.1 3-3.3 5.5-6.3 7.1l6.3 5.3c-3.7 2.5-8.4 4-13.3 4-7.6 0-14.1-4.4-17.4-10.8l6.6-5.1C10.2 31.9 16.3 36 24 36c5.3 0 9.8-3.6 11.3-8.5h.1c.3-.9.5-1.8.5-2.7 0-.7-.1-1.4-.3-2.1z"/>
</svg>
